<svg xmlns="http://www.w3.org/2000/svg" viewBox="0 0 2970.86 1149.53"><defs><style>.cls-1{fill:#cca500;}</style></defs><title>birds</title><g id="Layer_2" data-name="Layer 2"><g id="svg2"><path id="path2987" class="cls-1" d="M2956.12,465.13a8.65,8.65,0,0,0-3.67,1.26c-.43.45-2,.44-3.42,0-2.71-.84-3.49-.53-20.12,8.22-2.15,1.13-4.06,1.76-4.24,1.39s-2,.11-3.94,1.07a21.61,21.61,0,0,1-7.9,1.73,18.58,18.58,0,0,0-5.93.78c-.91.44-1.91.57-2.23.29s-4.2-.53-8.62-.56-8.22-.46-8.46-.95-.89-.39-1.45.2-1.25.61-1.6-.11a3.16,3.16,0,0,0-2.54-1.29c-2-.09-8.7-1.75-13.93-3.45a7.35,7.35,0,0,0-4.19-.31c-.75.36-1.36.06-1.42-.71s-1.12-1.5-2.36-1.7-4.47-.83-7.18-1.4a19.34,19.34,0,0,0-8.38.07,32.51,32.51,0,0,1-4.95,1.23,7.34,7.34,0,0,0-2.79,1c-.72.46-3.83,1.11-6.92,1.45-4.24.47-5.92,1-6.84,2.29-.67.92-1.55,1.56-1.94,1.42s-.28-.46.26-.72a1,1,0,0,0,.56-1.35c-.23-.48-.85-.55-1.37-.16-1.57,1.18-6.12,1.77-6.56.85-.23-.47.13-2.24.79-3.92.75-1.91.77-3.35,0-3.84s-.06-.48,1.28-.1c2.21.61,2.51.49,3.12-1.24a4.77,4.77,0,0,1,1.57-2.35.91.91,0,0,0,.56-1.13c-.18-.38.12-1,.68-1.28s2.23-1.44,3.71-2.48c3.89-2.74,10.87-4.85,13.26-4,1.13.4,2.13.57,2.22.38.58-1.17,3.8-1.8,5.7-1.11a16.42,16.42,0,0,0,5.71.51,12.84,12.84,0,0,1,5.14.49c1.47.69,1.58.6.91-.79s-.62-1.51,1-.68a8,8,0,0,0,4.71.13c2.5-.65,2.87-1,2.29-2.38-.39-.9-.28-1.23.24-.76,1.36,1.24,4.22-.45,4.06-2.4-.08-.94-.64-1.62-1.29-1.53a1.9,1.9,0,0,1-1.74-1.09c-.33-.68-.11-1.19.49-1.12s.82-.45.48-1.14c-.8-1.66-2.62-1.81-2.51-.21.05.79-.19.75-.66-.11a2.32,2.32,0,0,1,.08-2.36c.65-.79.56-1-.47-1a2.23,2.23,0,0,1-1.86-1.17,1.35,1.35,0,0,0-1.65-.75c-.86.35-.91.25-.24-.49.46-.51.31-2.05-.35-3.42-.83-1.72-1.45-2.18-2-1.46s-.43.24,0-.73c.6-1.31.42-2-.72-2.72s-1.33-1.52-.74-3.21c.47-1.34.36-2.2-.26-2.12-1.2.15-1.64-4.61-.48-5.17.37-.18.19-.79-.41-1.35s-.67-1.23-.16-1.47a1.26,1.26,0,0,0,.32-1.7c-.33-.69-.1-1.38.51-1.53,1.25-.31-.6-7.51-2.53-9.88-1-1.18-.92-1.32.23-.66,1.62.93,1.7.79,1.54-2.84a4.35,4.35,0,0,0-1.71-3.71c-1.15-.81-1.25-1.08-.37-1s.91-.52.42-1.55a3.19,3.19,0,0,1-.21-2.61,1.11,1.11,0,0,0-.33-1.53c-.51-.33.49-.56,2.24-.5s3.13-.31,3.06-.86,1.18-.91,2.95-.85c2.32.07,3.1-.22,3.2-1.2.09-.82.6-.6,1.4.59,1,1.49,1.86,1.67,4.13.83,1.58-.58,2.82-.62,2.77-.09s1.24,1.95,2.88,3.14c2.07,1.51,3.13,1.78,3.44.89s.81-1.06,1.6-.56.7.68-.11.6c-1.51-.16-1.1.88.82,2.09s2.39.28,2.4-3.37c0-1.61.44-2.88,1-2.82s.63-.59.22-1.44a4.51,4.51,0,0,1,.36-3.56,4.37,4.37,0,0,0,.68-2.88c-.23-.47.33-2.12,1.23-3.66,1.83-3.11,2.61-8.57,1.34-9.38-.45-.29-.36-1,.2-1.61a2.23,2.23,0,0,0,.44-2.3,1.86,1.86,0,0,1,.24-2c.83-.81.58-2.92-.76-6.29-.41-1-.4-2,0-2.08s.7-1.21.6-2.44-.49-2.09-1-1.85a1,1,0,0,1-1.24-.5c-.23-.49.07-.84.67-.77s1-.58,1-1.44c-.14-1.7,2-3.18,2.61-1.84.54,1.12,4.47-.82,4.62-2.27.18-1.66,3.25-.7,4.22,1.33.65,1.35,1.16,1.36,2.87.06,3.86-2.93,5.69-1.65,10.51,7.38,4.71,8.83,13.81,27.27,14.65,29.69.29.83,0,1.46-.54,1.4s-.47.69.41,1.88,1.07,2,.58,1.9-.63,1.07-.29,2.5.81,3.93,1.07,5.57a8.67,8.67,0,0,0,1.69,4.14c1.22,1.15,3.13,11,2.6,13.42-.15.69.09,1.39.54,1.55s.35.51-.21.78-.61.76-.11,1.08.56.76.12,1-.66,1.72-.47,3.36.57,2.61.9,2.09.87-.26,1.24.51.13,1.44-.7,1.51-1.41,1.52-1.46,3.95a14.18,14.18,0,0,1-.82,5,1.29,1.29,0,0,0,.15,1.76c.49.31.53.61.08.67s-1.6,2.08-2.58,4.49c-1.34,3.32-1.44,4.75-.41,5.88,2,2.21,13.4,5.78,14.55,4.56a.88.88,0,0,1,1.58.23,2.46,2.46,0,0,0,2.3,1.12,12.87,12.87,0,0,1,4.63,1.1c1.61.68,2.7.74,2.43.13s.83-.58,2.53.09c2.07.82,3.42.79,4.25-.1s1.18-.87,1.1-.19,1.2,1.47,2.82,1.91c3.39.93,3.65,1.31,3,4.33-.35,1.73-.78,2.11-1.94,1.7-1.91-.67-3-.13-2.13,1,.43.56-.36,1.43-2,2.26-1.49.74-2.81,1.13-2.94.86s-.78-.23-1.46.1-.88.81-.45,1.08c.92.59.27.86-3.54,1.45Zm-37.69,14.47a1.87,1.87,0,0,1,1.58-.84c.8-.05.69.24-.26.75s-1.46.5-1.31.09Zm12.94-39.1a1.94,1.94,0,0,1,.41-1.29c.32-.51.78-.52,1,0a1,1,0,0,1-.41,1.29C2931.93,440.69,2931.48,440.71,2931.38,440.5Zm-119.64,34.71c-.33-.69-.24-1.43.21-1.65s.87.28.93,1.1,0,1.56-.21,1.65S2812.07,475.91,2811.74,475.22Zm-59.34,25.88c-15.89,7.06-21.26,9.11-24.19,9.22a19.22,19.22,0,0,0-6.26,1.34c-1.37.66-2.94.91-3.49.56s-2.95-.55-5.33-.45-4.78-.1-5.33-.45a2.54,2.54,0,0,0-2.21-.06,5.61,5.61,0,0,1-3.42-.16,41.61,41.61,0,0,0-5.43-1.26,89.93,89.93,0,0,1-10.66-3.1c-7.95-2.76-14.28-4-16-3.19a6.16,6.16,0,0,1-3.39-.18c-5.27-1.55-16.58.16-23.14,3.49-3.26,1.66-4.6,1.93-5.48,1.1s-1.85-.63-3.45.44c-1.29.87-2.39,1.14-2.53.62s-1.08-.72-2.1-.47a4.38,4.38,0,0,1-2.66-.06c-.44-.28-2.3,0-4.13.6-4.19,1.39-5.25,1.27-6.2-.7-1.15-2.38,0-3.62,6.25-7,1.35-.72,1.91-1.49,1.36-1.84s-.6-.68-.18-.77c1.74-.39,6.41-4.58,6.79-6.1.51-2,4.59-3.94,9.2-4.31,1.91-.15,3.13,0,2.7.24s2,0,5.4-.58a84.21,84.21,0,0,1,13.74-.92c7.62.18,15.13-1.19,13.22-2.41-.62-.4-.26-.77,1-1,1.5-.29,1.78-.08,1.19.86-.5.8.43.65,2.56-.41,2.62-1.3,2.9-1.64,1.31-1.57-1.88.08-1.88,0,0-1,3-1.53,6.68-5.58,6.15-6.69a5.63,5.63,0,0,1,.5-3.33c.53-1.3.51-2.79,0-3.31a4.59,4.59,0,0,1-.91-3.08c.05-1.17-1.19-5.09-2.75-8.71-3.11-7.21-3.68-11.7-2.16-17.16.55-2,.67-4.24.28-5.05-.81-1.68-.69-5,.29-8.53a6.38,6.38,0,0,0,.13-3.48c-.73-1.51,1.27-8.15,2.65-8.81.62-.3.88-.8.58-1.12-.72-.77.45-10.74,1.3-11.15.37-.18.41-.86.1-1.51-.68-1.42-.35-7.65.43-8,.3-.15,0-.93-.7-1.74s-.83-1.67-.31-1.92a1.19,1.19,0,0,0,.38-1.62,2.21,2.21,0,0,1,.46-2.26,2.37,2.37,0,0,0,.37-2.46c-.44-.91-.13-1.42.91-1.5a8.52,8.52,0,0,0,2.34-.5.94.94,0,0,1,1.2.53,3.78,3.78,0,0,0,2,1.41c1.82.61,5.87-.81,4.61-1.61-.48-.3-.47-.75,0-1s1.17.15,1.51.86c1,2,3.06-1.48,2.49-4.24a4.33,4.33,0,0,1,.93-3.63c1.7-1.6,2.85-7.49,1.57-8-.51-.21-.37-.34.3-.29s1.8-2.25,2.57-5.39,1.67-6.48,2.08-7.71a5.94,5.94,0,0,0,0-3.76c-1-2.13-.46-3.25,1.41-2.78,1.19.3,1.44.11,1-.79-.31-.65-.23-3.88.18-7.17s.39-6.33,0-6.75c-1.13-1.06-.74-2.4,1.66-5.62,2.67-3.6,3.15-3.79,4.76-1.9.89,1,1.68,1.19,2.39.43s1.27-.72,1.51-.22.63.51,1.09-.5c1-2.26,3.21-1.4,4.27,1.7.54,1.55,1.3,2.67,1.7,2.48s.46-1,.12-1.87c-.57-1.42-.54-1.43.5-.21a1.84,1.84,0,0,0,2.4.4c.81-.57,1.4-.39,1.6.5a35.9,35.9,0,0,0,1.36,4.08,11.64,11.64,0,0,1,.9,4.11,9,9,0,0,0,1.1,3.85,20.06,20.06,0,0,1,1.44,6.75c.11,2.6.68,4.65,1.43,5.13a3.15,3.15,0,0,1,1.16,2.56c0,1,.26,1.88.68,2s.21,1.45-.45,2.9-.77,2.44-.24,2.21,1.59.42,2.36,1.45,1,1.84.47,1.78-.84,1.16-.73,2.7.18,3.62.15,4.62a10,10,0,0,0,.84,3.73,7.83,7.83,0,0,1,.44,4.13,7.22,7.22,0,0,0,.34,3.87c.44.91.43,3.38,0,5.5a12.78,12.78,0,0,0,0,5.78,5,5,0,0,1,.5,2.58,13.64,13.64,0,0,0,.06,10.9,39.58,39.58,0,0,1,2.45,10.3c.39,3.68,1.09,8.71,1.54,11.2s.58,4.63.28,4.77-.36,2.38-.14,5a45.09,45.09,0,0,1,0,7.46,74.62,74.62,0,0,0-.8,9.68,9,9,0,0,1-.76,3.77,2.45,2.45,0,0,0-.34,2,10.71,10.71,0,0,1-.22,4.06,11.12,11.12,0,0,0,.93,6.45c1.26,2.62,2.28,3.41,5.5,4.24,6.3,1.63,6.87,1.72,6.54,1-.17-.35,1.42.05,3.52.9,2.52,1,5.9,1.26,9.9.73,11.33-1.52,19.64.94,15.38,4.56-.8.68-1.16,1.43-.8,1.66s-1,1.05-3,1.82a38.79,38.79,0,0,0-8.56,4.11,7,7,0,0,1-3.81,1.2c-.92-.18-1.26.06-1,.67s.14,1-.24,1.1-9.89,4.24-21.12,9.24Zm-.58-41a.93.93,0,1,1,1.24.44A.93.93,0,0,1,2751.82,460.12ZM2645.74,508c-.22-.46-.24-.92,0-1a1.94,1.94,0,0,1,1.29.41c.51.32.52.78,0,1A1,1,0,0,1,2645.74,508Zm237.21-125.29a1,1,0,0,1,.41-1.29c.46-.22.92-.24,1,0a1.94,1.94,0,0,1-.41,1.29C2883.64,383.18,2883.18,383.2,2882.95,382.71Zm-198.37,12.71a1,1,0,0,1,.41-1.29c.46-.22.92-.24,1,0a1.94,1.94,0,0,1-.41,1.29C2685.27,395.89,2684.82,395.91,2684.58,395.42Zm-171,63.28c-.16-.33-.71-.15-1.23.39a2.76,2.76,0,0,1-2.68.38c-3.59-1.26-6.49-.72-13.3,2.49-9.4,4.43-10.85,5-11.22,4.2-.17-.36-1.07-.3-2,.14-2.05,1-20.29,3.59-21.27,3a5.48,5.48,0,0,0-2.63-.09c-5.38.86-9.63.92-12.31.19a9.4,9.4,0,0,0-3.65-.5c-1.45.7-24.44-5.47-32.07-8.6a5,5,0,0,0-3.42-.17,3.89,3.89,0,0,1-2.9,0c-.83-.38-3.53-.32-6,.14a27.11,27.11,0,0,1-5.62.62c-1.24-.23-8.88,2.4-16.62,5.71-2.71,1.16-5.09,1.76-5.29,1.34s-.49-.43-.64,0-2.37.91-4.94,1.1a40.27,40.27,0,0,0-6.82,1,3.41,3.41,0,0,1-3.87-1.34c-1.63-1.9-1.55-2.13,1.31-4.12,1.67-1.16,2.87-2.43,2.68-2.83s.49-1.15,1.52-1.67a18.6,18.6,0,0,0,4.45-4.17c3.46-4.34,10.6-7.79,15.87-7.66,2.22.05,4.21-.18,4.43-.53s2-.47,3.87-.28a13.27,13.27,0,0,0,5.92-.83c2.76-1.33,7.56-1.92,8.84-1.1.86.55,7.14-1.51,16.25-5.33l4.94-2.07-1.71-3.56a10.28,10.28,0,0,0-4.41-4.88,8.46,8.46,0,0,1-3.43-2.88c-.62-1.33-.51-1.43.76-.72,1.11.62,1,.11-.49-2-1.15-1.64-1.73-3.24-1.38-3.79s-.2-2.63-1.18-4.68-1.39-3.92-.9-4.15.46-.7-.07-1-.82-1.71-.66-3c.36-2.87-3-15-6.09-21.63-1.29-2.83-2-5.8-1.77-7.41l.39-2.7,3.77.14c3,.12,3.92-.18,4.51-1.46,1.08-2.36,4.45-1.91,6.54.87,1.6,2.12,1.93,2.16,4.32.51,1.95-1.35,3.16-1.56,4.88-.86,1.26.51,2.23,1.45,2.17,2.09s.56.83,1.46.39,2.51,0,3.76,1c6.07,5,7.46,6,8.12,5.65.4-.19,1.07.92,1.51,2.46.65,2.31,1.14,2.74,2.76,2.42,1.08-.21,2,.17,2.07.86a2.14,2.14,0,0,0,1.34,1.67c1.55.54,4.61-2.95,3.89-4.45-.28-.58.26-1.41,1.18-1.86s1.5-1.18,1.27-1.65.15-1.1.83-1.43a3.37,3.37,0,0,0,1.32-2.7,3.36,3.36,0,0,1,1.27-2.68,2.57,2.57,0,0,0,1.31-1.82c.09-.83-.13-.85-.64,0s-.73.78-.64,0a2.59,2.59,0,0,1,1.33-1.83c.66-.32,1-1.72.67-3.13a13.38,13.38,0,0,1,.4-5.54c.51-1.64.57-3.21.13-3.49s-.6-1.3-.36-2.26a7.46,7.46,0,0,0-.85-4.25c-.75-1.46-.88-2.93-.31-3.54s.64-1.25.22-1.52c-.82-.52,1.82-3.42,2.81-3.08a5.5,5.5,0,0,1,1.58,1.92c1.06,1.84,1,1.83,4,.78,1.09-.39,1.82-1,1.62-1.46-.73-1.52,1.72-2.87,3.85-2.12,1.53.54,1.94,1,1.34,1.6s0,1.15,1.78,1.81,2.6.6,2.52-.25a2.54,2.54,0,0,1,1.58-2.05c1.48-.71,1.81-.41,2.53,2.27s1.13,3,3,2.79a10,10,0,0,0,2.79-.7c.32-.22.77,0,1,.45a1.09,1.09,0,0,1-.64,1.36q-1,.52.61.73c1,.13,1.27.4.64.71-1.7.85-1.38,4.41.57,6.26a4,4,0,0,1,1.37,4.08,4.51,4.51,0,0,0,.46,3.26c.47.47.84,2.15.8,3.74a8.26,8.26,0,0,0,.65,3.82,6.35,6.35,0,0,1,.56,3.32c-.11,1.92.08,2.29,1,1.9.6-.27.48.95-.27,2.71s-1.2,3.13-1,3-.5,2.27-1.55,5.26c-1.6,4.55-1.53,8.16.18,9.23.2.13,0,1.37-.38,2.76s-.4,2.38,0,2.2.42.4,0,1.29a11.18,11.18,0,0,0-.69,4.25,53.33,53.33,0,0,1-1.7,9.74c-1,3.92-1.37,7.32-.86,7.56s.49.34,0,.22c-1.43-.33-2.91,4.68-2.08,7,.4,1.11,1,1.86,1.25,1.67,1.56-1,2.79-1,3.29,0,1.1,2.3,10.82,2.6,16.64.52,3-1.08,5.81-1.73,6.25-1.45s1.76,0,2.95-.53c2.28-1.09,7.77.48,8.75,2.5a2.31,2.31,0,0,0,1.52,1.27c.53.06,1.72,1.64,2.66,3.52,1.29,2.58,1.36,3.44.32,3.53s-1,.46-.33,1.1.29,1.38-2.14,2.63c-12.6,6.46-17.79,8.86-18,8.34Zm-259.91,22.19c-.81.09-3.23.14-5.37.1s-3.82.11-3.72.32-2.13.12-5-.22c-5-.59-5.41-.47-15.81,4.52-6.26,3-11,4.84-11.35,4.44s-3.14,0-6.15.82a38.6,38.6,0,0,1-7.18,1.44,23.5,23.5,0,0,0-5.24.91,27.14,27.14,0,0,1-6.13.94c-1.43,0-6.42,0-11.08,0s-8.62-.21-8.79-.56-.78-.4-1.37-.12-3.78-.32-7.1-1.33c-8.75-2.68-13.9-3.76-17.27-3.62a40.07,40.07,0,0,1-5.73-.24c-4.93-.65-15,2-30.32,8.09-1.42.56-2.31.43-2.38-.34-.09-1.09-2.63-.61-4.76.89a5.54,5.54,0,0,1-2.5.35c-2.61-.11-4.2-4.59-2.07-5.84a28.23,28.23,0,0,0,7-6.7c.73-1.2,1.63-2.08,2-1.95s1.06-.83,1.52-2.14a7.28,7.28,0,0,1,3.57-3.67c3.95-1.86,10.9-3.28,12.15-2.48a3.91,3.91,0,0,0,3-.16,11.67,11.67,0,0,1,5.06-.44,14,14,0,0,0,5-.23,48.3,48.3,0,0,1,7.41-1.12c6.93-.61,11.48-2.75,12.59-5.92.57-1.64,1.13-2.15,1.73-1.61s.65.23.31-.57a5,5,0,0,0-2.92-2.06c-2.12-.63-5.92-4.31-6.27-6.09-.08-.39-1.91-2.07-4.07-3.72-3.58-2.74-4.32-3.88-8.32-12.76-2.84-6.31-5.56-11.13-7.7-13.65-3.61-4.26-4.59-5.9-2.26-3.78,1.16,1.06,1.18.38.1-3.14-1.72-5.59-1.67-6.31.39-5.8a3.08,3.08,0,0,0,2.71-.72c.62-.65,1-.68,1-.06-.19,1.82,1,.63,1.41-1.36.32-1.72.54-1.8,2.75-1a23.58,23.58,0,0,1,4.1,2.06c1.56,1.06,1.84,1,3.41-1.18s1.88-2.25,3.45-1.41c1,.51,1.9.51,2.11,0s.58.06.84,1.28c.38,1.81,1,2.17,3.31,2a5.37,5.37,0,0,1,4,1.15c.65.77,1.47,1,1.82.41s1-.24,1.51.84,2.92,2.48,5.57,3.32c9.71,3.1,11.73,3.29,12.68,1.22s5.12-1,6.46,1.76c1.24,2.59,3.17,1.59,4-2.07.35-1.59.91-3,1.24-3.18.67-.32,5.43,1,8.74,2.39,1.18.5,3.68,1.5,5.55,2.21a27.38,27.38,0,0,1,6.2,3.56c1.54,1.24,3.18,2,3.65,1.63s1.69.59,2.71,2.09,2.2,2.56,2.61,2.36c.72-.35,2.64,2.8,7.32,12,1.53,3,2.17,3.69,2.32,2.5.11-.91.42-1.22.68-.7.74,1.49.4,5.66-.77,9.45-.62,2-.62,3.91,0,4.52.8.75.68,1-.42.92-.9-.07-1.09.05-.46.31a2.57,2.57,0,0,0,1.72.11c.36-.17,2.3.29,4.31,1,7.66,2.82,12.54,3.77,18,3.5,3.11-.15,5.5.16,5.32.69s.2.61.84.18c2.91-1.95,4.78-2.07,6.76-.43,4.43,3.64,4.89,9.15.81,9.73-1.16.16-1.75.66-1.48,1.22s0,.9-.56.84a1.07,1.07,0,0,0-1.13,1c-.12,1.15-3.61,3-6.17,3.31ZM1578.9,802.4a5.15,5.15,0,0,1-2.55-1.48c-1.45-1.84-3.32-1.51-4.24.75-.75,1.84-1.05,2-2.23,1.28a6.56,6.56,0,0,1-2-2.25c-1.31-2.66-2.79-3.43-4.24-2.2a3.84,3.84,0,0,1-3,.82c-.86-.22-1.73,0-1.94.55s-.33-.11-.29-1.39-1.25-5.54-2.86-9.47-3.31-8.35-3.77-9.83c-2.78-9-5.46-19.84-6.05-24.46-.82-6.31-2.72-14.32-4.07-17.13s-4.7-2.19-6,1.23a7.1,7.1,0,0,1-2,3.15,2.11,2.11,0,0,0-.9,2c.07.82-.28,1.44-.78,1.39a1,1,0,0,0-1,1c-.06.61-1,1.55-2.16,2.09a4.45,4.45,0,0,0-2.28,3.16,4.42,4.42,0,0,1-2.61,3.32,11.48,11.48,0,0,0-3.66,2.9,29.44,29.44,0,0,1-5.23,4.55c-2.17,1.53-5.06,3.63-6.42,4.65s-3.13,1.69-4.13,1.44c-1.3-.32-2.24.34-4.31,3.06a11.56,11.56,0,0,1-6.18,4.6c-1.94.62-3.23,1.32-2.86,1.56s-.55,1.09-2,1.91c-2.58,1.41-4,.55-3.18-1.89.45-1.29-.25-2.32-1.26-1.84-.49.23-.44.71.1,1.06s0,.52-1.24.39-2.19-.6-2.14-1-.43-.71-1-.63-.22-2.59.9-5.94c8.38-25.16,12.23-35.91,12.78-35.71.36.12.42-.24.15-.81s.32-3.61,1.33-6.75,2.23-7.11,2.73-8.83a24.5,24.5,0,0,1,2.82-5.91c1.46-2.11,1.57-2.91.48-3.29-3.13-1.09-8.67.52-22.68,6.58-10.41,4.51-15.1,6.17-16.28,5.75a4.39,4.39,0,0,0-2.87,0,7.62,7.62,0,0,1-3,.49,19.22,19.22,0,0,0-4.42.54c-4.35,1.06-6.1-2.29-2.49-4.78a9.81,9.81,0,0,0,2.31-2.28c.43-.67,1.08-1.11,1.46-1s2.38-2,4.45-4.66c4-5.16,10.66-9.38,14.63-9.22,2.23.09,19.47-6.48,24.15-9.2,1.68-1,3.82-1.59,4.74-1.36,1.1.28,5.83-1.51,13.73-5.2,11-5.14,12.64-5.66,19-6.12,10.23-.72,19.16-.85,19.83-.28a1.74,1.74,0,0,0,1.66,0,8.47,8.47,0,0,1,4,.13c1.59.35,3,.3,3.16-.12s.8-.25,1.46.37a2.7,2.7,0,0,0,2.81.35,2.61,2.61,0,0,1,2.7.25,2,2,0,0,0,1.86.65c1-.48,15.1,2.55,20.29,4.38,4.79,1.68,7.5,1.89,9.86.76,1-.46,1.93-.43,2.16.06s.7.46,1-.07,2.85-.13,5.58.87,4.77,1.92,4.52,2,.26.73,1.12,1.36c1.31,1,1.19,1.65-.76,4.25-2.11,2.82-2.92,3.28-8.68,4.93-10.65,3.07-13.22,4.27-12.69,5.95.58,1.87,1.58,14,1.51,18.35,0,1.83.47,3.65,1.13,4.1s.74.68.2.52-1.07.59-1.17,1.68-.41,3.67-.68,5.74a21.33,21.33,0,0,0,.35,7c.74,2.76.56,14.6-.4,25.57-.31,3.54-3,13.13-5.9,21.15-1,2.69-1.54,5.16-1.25,5.5.54.61-1.5,2.94-2.92,3.33-1.89.52-3.65,1.91-3,2.34,1.39.89-1.15,3.72-3,3.32Zm373.87-181.64c-4.88.83-9.65,2.5-17.68,6.19-11.83,5.44-28.3,11.32-29.54,10.55-.42-.26-2.86,0-5.44.48-5.42,1.11-25.55,1.09-31,0a13.78,13.78,0,0,0-4.37-.44c-.37.18-2.48-.32-4.69-1.1-10.21-3.62-15.55-3.45-27.43.87-4.84,1.76-9.65,3.59-10.7,4.07s-2.08.5-2.3,0-.84-.36-1.38.22-1.3.71-1.7.3-2.28,0-4.19.84c-4.36,2-7.38.62-6.35-2.87.36-1.22,1.29-2.26,2.06-2.33s2.06-1.2,2.85-2.52,1.92-2.35,2.51-2.29.88-.25.67-.7c-.64-1.33,4.94-7.69,8.05-9.19,3.28-1.58,9-2.72,10.23-2s12.26-.47,19-2.12c7.71-1.89,10.32-3.12,12.37-5.81,1.91-2.51.34-5.62-3.35-6.59-1.33-.35-2.17-.76-1.87-.91s-.38-.8-1.54-1.45a4.33,4.33,0,0,1-2.21-2.56c-.17-2-3.13-5.28-3.83-4.19-.38.59-.79,0-1.12-1.64-.3-1.45-.76-2.21-1.05-1.74-.52.81-3.55-5.51-7.43-15.52-1.07-2.74-2.31-5-2.76-5.08-1.16-.12-5.47-10.41-5-11.84s4.8-1.15,5.54.39,1.88.73,2.42-1.41c.59-2.38,2-2.93,4.77-1.82,2.13.87,2.41.76,4.17-1.57,1-1.38,1.83-2,1.77-1.45s.64,1.24,1.56,1.47a8.11,8.11,0,0,1,3.39,2.62c1.32,1.69,2.19,2,3.74,1.23s3.1-.29,6,1.52c2.17,1.37,4.33,2.46,4.79,2.43a1.74,1.74,0,0,1,1.39,1.07,4.91,4.91,0,0,0,2.49,1.81c1.07.38,1.77.77,1.56.87-.73.35,8,3.15,9.45,3,2-.17,2.34-4.35.71-9.54-1.24-4-1.78-9.9-.93-10.31,1.27-.61,3.56-.24,4,.65a3.69,3.69,0,0,0,2.21,1.49c1.36.34,1.74,0,1.95-1.84.29-2.61,1-3.11,3.2-2.41,1.1.34,1.75,1.34,2.06,3.17.38,2.21.68,2.51,1.76,1.75a3.85,3.85,0,0,0,1.48-1.81c.09-.49,1.23-1.51,2.53-2.25,2.26-1.29,2.42-1.21,3.63,1.91,1.06,2.73,1.53,3.14,2.88,2.49a4.18,4.18,0,0,1,3.12-.08c2,.93,8.25,7.86,8.13,9-.05.52.65,1.13,1.57,1.36a3.93,3.93,0,0,1,2.33,1.84c.36.78,1.89,3.78,3.38,6.66s2.51,5.84,2.24,6.62a6.14,6.14,0,0,0,.65,3.73c.62,1.29.78,2.52.36,2.72s-.46,1.69-.08,3.31a13.16,13.16,0,0,1,.42,4.19c-.15.69-.73,3.1-1.29,5.35-1.3,5.26-.32,7.32,3.07,6.46,1.49-.38,2.54-.18,2.47.48s.34.65,1.17-.23,1.15-1,1-.48c-.5,1.44,16.23,2.93,18.83,1.68,1.42-.68,8.17,2.35,9,4,.56,1.17.15,1.87-1.55,2.68-5.24,2.49-6,3-6.09,4-.13,1.26.37,1.1-8.07,2.54Zm647.92-319.08c-3.61-3.82-4.2-3.92-9.17-1.53-2.64,1.27-5.14,2.13-5.56,1.91s-2.92.39-5.55,1.35a94.83,94.83,0,0,1-9.16,2.75c-2.4.55-4.64,1.42-5,1.93s-2.25,1-4.29,1.12a21.72,21.72,0,0,0-6.92,1.74c-2.23,1.07-3.26,1.17-3.34.31-.06-.68-1.16-1.25-2.45-1.27-7-.09-9.6-.38-13-1.39-2.05-.62-4.17-.66-4.7-.1s-1.08.52-1.25-.2c-.34-1.45-6.74-1.74-9.59-.44-1.63.74-1.93.61-1.6-.74.49-2-1.4-2.51-3-.85-.77.82-1.11.53-1.48-1.26-.46-2.27-1.86-2.41-4.45-.45-.42.31-.62.17-.45-.32s-1-1.19-2.68-1.55c-2.5-.55-4.57,0-12.49,3.48-5.22,2.28-9.76,4-10.09,3.93s-.21-.85.25-1.63c.62-1,.08-1-2,.2a10.08,10.08,0,0,1-4.19,1.48,2.2,2.2,0,0,0-1.93.78c-.32.51-.76.56-1,.12s-2.08-.71-4.16-.59-3.3,0-2.72-.35c.79-.42.64-.87-.59-1.77-2.46-1.8-2.51-2.46-.3-3.69a6.84,6.84,0,0,0,2.73-3.18c.4-1.14,1.36-2.12,2.13-2.18,1.36-.11,3.94-3,4.29-4.87.26-1.36,7.8-5.09,8.94-4.43.89.52,7.8-.55,12-1.85a5.71,5.71,0,0,1,3.06,0,4.55,4.55,0,0,0,3-.22,2.53,2.53,0,0,1,2.62.29c.61.58,2.13.53,3.47-.12s2.77-.89,3.26-.58a1.55,1.55,0,0,0,1.82-.43,1.61,1.61,0,0,1,1.92-.36c2,1.25,10.47-4.9,10.42-7.52,0-.56.26-1.06.61-1.1,1-.13.37-6.09-1-9.4a18.25,18.25,0,0,1-1.4-5.06c-.06-1.58-.29-1.72-1.21-.74s-1.36.75-2-.65-.54-1.65.38-1.08.5-1.14-.85-4.58-1.8-5.87-1.29-6.72c.69-1.13.58-1.38-.66-1.54-.93-.12-1.27-.54-.89-1.12.83-1.3-1.71-4.1-2.56-2.84-.38.56-.39-.06,0-1.37a7.63,7.63,0,0,0-.4-4.6c-.78-1.63-.67-2.25.44-2.34s1.17-.44.28-1.27a5.43,5.43,0,0,1-1.25-3.39c-.06-3.89-2.18-12-5.1-19.53-3.06-7.87-3-10.08.11-10a10.36,10.36,0,0,0,4.64-1.62c3.05-1.92,5.52-1.65,6.67.74.63,1.32,1.09,1.34,2.37.1,3.4-3.27,5.88-3.2,10,.28,1.2,1,2.44,1.44,2.76.94s1-.25,1.41.56,1.16,2.05,1.58,2.75,3,2.24,5.78,3.42l5,2.14,1.5-5.24c.82-2.88,1.28-5.7,1-6.26-.89-1.84-.42-7.61.61-7.5s.51-1.84-.9-4c-.35-.54-.3-1.15.12-1.35s.29-1.42-.28-2.7-1.3-3.11-1.62-4c-.71-2.06.81-6.77,2.3-7.1.59-.13.69-.88.24-1.67a1.25,1.25,0,0,1,.69-2c.84-.32,1.36-.92,1.17-1.33-.61-1.28,1.92-1.93,3.11-.8.62.59,1.41.64,1.75.1s.79-.13,1.1,1.41c.42,2.05.75,2.24,2.4,1.33a7.45,7.45,0,0,0,2.47-2c.3-.55,1.68-1.07,3.05-1.17s2.16.19,1.74.63c-1.16,1.22,1.7,4.46,3.61,4.09,1.4-.27,2.05.51,3.84,4.54,1.56,3.53,2.64,5,3.92,5.22,2,.39,3.94,2.42,2.18,2.24-.61-.06-.83.47-.49,1.19s1,1.13,1.47.9,1.56,1.11,2.45,3c1.25,2.61,1.29,3.53.18,4.13-.86.46-.93.74-.18.69,1.5-.1,3.22,3.13,2.6,4.89-.24.69.18,2.78.95,4.66s1.15,4.13.87,5a5.75,5.75,0,0,0,.44,3.6,15.36,15.36,0,0,1,1.11,4.81c.09,1.56.2,3,.25,3.3s0,2.14-.11,4.18a39.82,39.82,0,0,0,2.46,14.83c.9,2.08.85,2.32-.3,1.25s-1.48-.39-1.84,4.63a34.59,34.59,0,0,1-1.18,7.59,3.9,3.9,0,0,0-.17,2.85c.32.66.11,1.16-.47,1.09-1.33-.14-2.49,8.91-1.34,10.43.47.62.44,1-.08.81-1.31-.45-2.83,3.62-2,5.34,1,2.05,2,2.14,3.7.32,1.13-1.19,1.68-1.3,2.1-.43a1.33,1.33,0,0,1-.63,1.76c-.66.32,1,1.14,3.73,1.82s5.83.81,6.94.28,2.16-.67,2.33-.31,2.26.34,4.63,0,4.52-.27,4.77.26c.67,1.39,6.52,1.1,11.1-.55.92-.33,1.06-.19.48.45a1.79,1.79,0,0,0-.45,1.75c.22.45.66.4,1-.1s1-.12,1.44.86.47,1.74,0,1.69-2.75,1.44-5.09,3.31a24.44,24.44,0,0,1-7.27,4.15c-3,.73-6.06,2.14-13.25,6-2.77,1.5-3.33,2.16-2.5,2.94a2.83,2.83,0,0,1,.45,2.76c-.34,1-.27,1.87.15,2s.32.49-.24.75a2.18,2.18,0,0,1-2.18-.76Zm-105.49,2.23a1.87,1.87,0,0,0-1.58.84c-.14.41.45.37,1.31-.09S2496,303.86,2495.19,303.91Zm99.52-.43c-1.35.45-2.6.51-2.78.13-.55-1.15,4.28-3.91,5.71-3.25,1.65.76.52,2-2.93,3.12Zm11.42-5.3a1.87,1.87,0,0,1,1.58-.84c.8-.05.69.24-.26.75S2606,298.6,2606.12,298.19Zm3.87-2.11c-.47-1,4.39-3.39,5.45-2.71.47.3-.48,1.2-2.13,2s-3.14,1.11-3.33.72Zm1.25-3.85c-1.42-.18-1.45-.3-.24-.9a2.73,2.73,0,0,1,2.33-.1C2614.5,292,2613.39,292.5,2611.24,292.22Zm-52.56,21.71a1.94,1.94,0,0,1,.41-1.29c.32-.51.78-.52,1,0a1,1,0,0,1-.41,1.29C2559.23,314.12,2558.77,314.13,2558.67,313.93Zm-147.77,58.4a5.32,5.32,0,0,1,2.5-1.24c.92-.18.54.23-.83.91S2410.44,372.83,2410.9,372.33ZM1477.05,778.41c-.51-.32-.52-.78,0-1a1,1,0,0,1,1.29.41c.22.46.24.92,0,1A1.94,1.94,0,0,1,1477.05,778.41Zm-6.84.59c-1.11-1-.7-1.34,2.19-1.56,1.87-.14,1.88-.1.38,1.18-1,.82-1.95,1-2.57.38ZM1303.3,838a57.82,57.82,0,0,0-8,3c-3.22,1.5-4.9,1.76-6.67,1s-3.25-.51-7,1.44a35.42,35.42,0,0,0-6.6,4.4c-2.83,2.78-21.24,9.12-27.12,9.34-2.51.09-6.16.24-8.1.34s-5.41.19-7.71.21a20.85,20.85,0,0,0-5.13.5,2.52,2.52,0,0,1-2.18-.39c-1.47-1-10-2-17.59-2a41.3,41.3,0,0,1-10.79-1.8c-6.11-2-13.46-2.49-17.17-1-1.41.55-2.92.81-3.37.58s-3.53.61-6.85,1.87-6.63,2.16-7.36,2a2.94,2.94,0,0,0-2,.17c-1.42,1-2.7,1.13-5.3.42a13.56,13.56,0,0,0-6,.17c-4.59,1.27-6.84,1.06-7.69-.7s1-4.32,5.13-7.24a29.26,29.26,0,0,0,5.44-5.38c3.12-4.17,13-8.63,16.67-7.54,1.26.37,2.41.34,2.56-.08s1.65-.22,3.33.45,3.2.81,3.37.33a.85.85,0,0,1,1.28-.34c1.16.64,9.68-.29,16.88-1.84,6.67-1.43,11.16-3.57,11.66-5.54.79-3.16-4.28-11.49-7.43-12.22-2-.46-5-6.24-6-11.46a82.86,82.86,0,0,0-4.1-12c-3.35-8-5.37-16-4.21-16.56.33-.16,2.27.3,4.32,1,2.31.81,4.13.87,4.8.17s2-.52,3.8.75c2.87,2,3.82,2,4,.25a2.42,2.42,0,0,1,1.3-1.66c1.9-.91,9.54,1.63,10.42,3.47.57,1.18,1.13,1.34,1.88.55s2-.32,4.55,1.84c1.91,1.63,3.79,2.82,4.18,2.63s1.71.57,2.95,1.68,2.58,1.86,3,1.66,1,.21,1.34.9c.78,1.61.94,1.51,3.42-2.19a20.57,20.57,0,0,0,2.48-14.59,13.54,13.54,0,0,1-.49-4.63,2,2,0,0,0-.55-2c-.5-.32,0-.73,1.09-.94a3.34,3.34,0,0,1,2.69.42c3.19,3.58,2.92,3.59,5.75-.13,2.44-3.21,2.64-3.32,2.72-1.6.13,2.78,1.79,6.8,2.41,5.84a1.12,1.12,0,0,0-.47-1.49c-.64-.41-.44-.7.54-.78a3.84,3.84,0,0,0,2.54-2c1.48-2.88,3.19-3.42,3.63-1.15.3,1.54.64,1.68,1.68.7,1.37-1.29,4.14.63,3.91,2.73-.06.59.91,1.87,2.16,2.84,2.91,2.28,6.83,11.45,6.85,16a20.75,20.75,0,0,1-1.11,6.32c-.82,2.14-.7,3.8.47,6.23s1.35,4.93.66,9.57c-1.33,8.91-1.15,9.66,2.59,10.82,1.76.54,3.71.74,4.33.44a1.14,1.14,0,0,1,1.54.29,1.12,1.12,0,0,0,1.51.31c.61-.29,3.59.25,6.63,1.2a68.89,68.89,0,0,0,16.47,3.62c3.4.41,6.66,1.2,7.24,1.75,2.56,2.41-2.35,7.18-9.24,9Zm597.3-288.39c-.46-.87-.5-1.46-.09-1.31a1.87,1.87,0,0,1,.84,1.58c.05.8-.24.69-.75-.26Zm-44.2,4.72c-.46-.87-.5-1.46-.09-1.31a1.87,1.87,0,0,1,.84,1.58c.05.8-.24.69-.75-.26ZM2511,218.53c-.78-1.62-.92-2.36-.32-1.65a7.64,7.64,0,0,1,1.41,2.94C2512.27,220.73,2511.78,220.15,2511,218.53Zm-3.41-7.14c-.9-1.84-1.14-2.77-.55-2.07a10.16,10.16,0,0,1,1.63,3.35c.3,1.14-.19.57-1.08-1.27ZM950.93,930c-2.47.76-7.3,2.17-10.72,3.14s-6.85,2.28-7.62,2.94-1.58.8-1.81.33-1.07-.3-1.88.39-1.61,1-1.78.6-3.14.63-6.59,2.19a61.4,61.4,0,0,1-12.84,3.9c-3.61.58-8,1.41-9.82,1.84-4.54,1.08-17.44,2.08-18.46,1.43a3.16,3.16,0,0,0-2.52.26c-1.75.84-10.1.78-11.11-.08a1.37,1.37,0,0,0-1.36-.12c-.43.21-3.75-.08-7.37-.63s-9.43-1.13-12.9-1.29c-5.79-.26-9.47-1-19.84-3.87a30.5,30.5,0,0,0-7.63-.92c-2.13.07-4-.18-4.19-.55s-1-.35-1.84,0A4.25,4.25,0,0,1,808,940c-1.19-.39-5.86.62-9.77,2.12a47.94,47.94,0,0,1-5,1.5c-1.53.37-5.5,1.69-8.82,3s-7,2.24-8.25,2.18a9.64,9.64,0,0,0-4.41,1.16c-2.75,1.58-7.89.3-9.12-2.28-1.14-2.36-.58-3.24,3.67-5.83,1.86-1.13,3.33-2.45,3.27-2.94s.78-1.05,1.87-1.27a2.9,2.9,0,0,0,2.38-2.53c.63-3.38,10.67-8.47,19.33-9.81,3.72-.57,6.94-.68,7.15-.23s1,.54,1.65.21,1.41-.3,1.59.08,2.55.22,5.26-.34a68.63,68.63,0,0,1,8-1.19c8.93-.49,17.09-4,21-9.16,2.16-2.8,3.51-8.12,3.14-12.37-.16-1.84-.35-4.26-.41-5.36-.29-4.78-2.35-11.3-5.91-18.71l-3.82-8,2.54-6c1.4-3.27,3-6.18,3.62-6.47,1.29-.62,5.55-7.27,6.88-10.75a25.19,25.19,0,0,1,2.84-5c1-1.39,3.39-5,5.22-8.1s3.87-5.84,4.53-6.16,1-1,.8-1.42.35-1.2,1.27-1.65,1.5-1.18,1.27-1.65.22-1.14,1-1.5,2.7-2.86,4.31-5.54a112.78,112.78,0,0,1,7.45-10.46,45.9,45.9,0,0,0,5.13-7.32,5.15,5.15,0,0,1,2.93-2.53c2.41-.83,3.65.6,3.83,4.44.17,3.53,7.42-2.82,14.89-13,.86-1.17,3-3.94,4.79-6.14a26.08,26.08,0,0,0,3.41-4.94,13.81,13.81,0,0,1,2.91-3.62c1.5-1.48,2.5-3.17,2.22-3.75a1.72,1.72,0,0,1,.62-1.94c.62-.49.78-.46.35.07s0,1.22,1.73,1.83c1.38.48,2.55,1.51,2.62,2.29s.59,1.22,1.17,1,.45.25-.28,1.09c-1.18,1.35-1.07,1.41,1,.48,1.91-.86,2.52-.67,3.34,1a6.75,6.75,0,0,1,.17,4.47c-.82,2.34-.8,2.37,1.2,2a13,13,0,0,1,4.15,0c1.86.35,2.09.68,1.86,2.77-.14,1.31-.74,2.6-1.32,2.88a1.08,1.08,0,0,0-.65,1.35c.22.46,1.26.44,2.3,0,2.28-1.06,5.67-.5,6.52,1.08.34.63.55.19.48-1-.12-1.85,3.41-5.86,3.91-4.44a5.57,5.57,0,0,0,.78,1.28,21,21,0,0,1,1.32,1.95,1.15,1.15,0,0,0,1.64.51c.58-.43,1,0,1.09,1,.15,1.55.27,1.47,1.2-.72,1.47-3.44,3.33-3.21,8.6,1.1a44.83,44.83,0,0,0,5.31,4,2.69,2.69,0,0,1,1.23,1c2.38,3.42,9,10.59,10.72,11.66,1.18.73,2.1,1.82,2,2.42a2.08,2.08,0,0,0,1.31,1.76c.79.36,2.63,2.59,4.1,5s3.1,4.46,3.61,4.65c2,.74,5.46-11.66,4.4-15.72-.82-3.12.58-6.13,2.74-5.86a3.09,3.09,0,0,1,2.34,1.64c.67,1.77.66,1.78,3.23-2.05l2.14-3.19,1.07,2.23c.59,1.23,1.32,1.84,1.62,1.37a1.11,1.11,0,0,1,1.54-.22c.59.38,1.91-.09,3.26-1.15,1.62-1.27,2.24-1.42,2.14-.53a2.32,2.32,0,0,0,1.46,2c3.11,1.43,9.46,17,8.83,21.71-.2,1.52-.09,2.86.25,3s.32,1.22,0,2.44c-1.37,4.64-1.5,5.84-.78,7.32a5.4,5.4,0,0,1-.27,3.82c-.55,1.26-.54,2.59,0,3s.55.61-.22.53-1.17.86-1,2.41-.26,2.79-.84,3.09-1.25,2.17-1.48,4.16l-.43,3.61,3.44.51a44,44,0,0,0,6.24.43c1.54,0,2.93.18,3.08.49.37.76,5.46.7,7.85-.09a20.22,20.22,0,0,1,6.62,0c2.59.36,5.49.75,6.44.86a15.5,15.5,0,0,1,7.22,3.52c.9.82,1,1.2.17,1.11s-.74.35.09,1.23.86,1.6-.47,2.37a4,4,0,0,0-1.91,2.43c-.1.83-.36,1-.62.51s-2.5,0-5.38,1.2c-2.71,1.16-6.51,2.68-8.45,3.37s-11.24,4.54-20.67,8.57c-11.6,5-18.56,7.48-21.55,7.81a28.38,28.38,0,0,0-5.67,1.09c-1.62.75-16.81,2-18.34,1.48a4.07,4.07,0,0,0-2.57.3,4.13,4.13,0,0,1-3.07-.09,18.13,18.13,0,0,0-5.95-.63,21.67,21.67,0,0,1-6.69-.78,24.21,24.21,0,0,0-6.11-1.09,56.88,56.88,0,0,1-11.26-2.71c-10.68-3.59-13.56-4.22-16.39-3.59a7.53,7.53,0,0,1-4.14-.25c-2.08-1-6.81,1.18-7,3.25-.1.85-.4,1.19-.66.75s-.4.56-.31,2.21c.47,8.36.18,11.73-1.13,12.84-.79.67-1.06,1.35-.61,1.51s.35,1.29-.23,2.51a6.37,6.37,0,0,0-.13,4.48c.51,1.24.56,2.22.11,2.18s-.55.46-.23,1.13c.87,1.81,7.72,4.21,9.52,3.34a14.62,14.62,0,0,1,5.23-.61,11.37,11.37,0,0,0,6.61-1.74c2.49-1.59,3.54-1.67,6.8-.53a17.44,17.44,0,0,0,4.27,1.15c.8-.38,4.5,1.24,5.2,2.28,1,1.48,6.28,4.76,10.08,6.26a8.83,8.83,0,0,1,4.21,3.32c1.09,2.26.71,2.52-7.4,5Zm-4.65-68.77a6.37,6.37,0,0,0,2.19-3.1c.43-2.29-5-12.22-8.73-16.07-3.37-3.44-5-7.76-3.86-10.24a3.49,3.49,0,0,0,.23-2.48c-.25-.53-.44-5.15-.41-10.26s-.4-10.94-1-12.94a16,16,0,0,1-.77-4.79,8.38,8.38,0,0,0-1.05-3.79c-.95-1.92-1.56-2.36-2.26-1.61a1.82,1.82,0,0,0,.15,2.34c.76.9.68,1.35-.27,1.42s-1.09.72-.52,1.91a2.83,2.83,0,0,1-.2,2.92,1.45,1.45,0,0,0-.11,2c.61.57.43.95-.48,1s-1.24.54-1,1,.12,1-.28,1c-.88.13-3.84,8.41-4.34,12.17-.2,1.5-.72,2.9-1.16,3.11-1,.47-2.17,3.67-1.72,4.63.31.66-1.77,4.2-5.12,8.68a14.09,14.09,0,0,0-2,5.42c-.26,1.82-.74,3.44-1.06,3.6-2.34,1.13-3.83,16.09-1.8,18,.57.54,4.13,1,7.91,1s7.14.26,7.46.53a2,2,0,0,0,1.85-.11,9.52,9.52,0,0,1,4.32-.08c3,.52,9-1.09,11.07-3,.59-.54,1.92-1.64,3-2.44ZM1004.11,798c-1-.62-2.12.8-1.57,1.94.2.42.83.28,1.39-.32S1004.57,798.28,1004.11,798Zm238.72-28.82a1,1,0,0,1,.41-1.29c.46-.22.92-.24,1,0a1.94,1.94,0,0,1-.41,1.29C1243.53,769.64,1243.07,769.65,1242.84,769.17ZM1335.68,692c-1.94-3.31-4.29-4-3.81-1.09.16.95-1.06-1.59-2.7-5.65a41.82,41.82,0,0,0-7.28-12.51,42.7,42.7,0,0,1-5.18-7.34c-2-4.9-5.47-4.65-20.95,1.53-1.27.51-2.22.67-2.11.36.23-.65-13.29,1.17-15.09,2-.67.32-1.79,2.13-2.5,4-1,2.72-1.56,3.27-2.55,2.64s-1.28-.37-1.35,1.31c-.05,1.16.26,2.24.69,2.39s.25.54-.4.86a8.34,8.34,0,0,0-2.45,3.11,5.61,5.61,0,0,1-3,2.86c-1,.19-1.55.75-1.31,1.24.48,1-1.74,7.2-2.75,7.68-.35.17-.91-.26-1.24-1-1-2.1-1.79-.93-3.54,5.33-.92,3.29-2,5.86-2.41,5.72-.93-.33-2.92-4.2-2.3-4.5.25-.12,0-1.29-.52-2.59l-1-2.37-.61,2.57c-.33,1.41-.88,2.48-1.21,2.36s-.8.59-1,1.58c-.65,2.61-1.62,2.71-2.63.26-.49-1.19-.67-2.26-.4-2.39s.21-.82-.13-1.53-1-.88-1.62-.24-1.08.56-1.29-.63c-.16-.92-.43-2.32-.59-3.09a4.46,4.46,0,0,1,0-2.06c.33-.77-.49-6.75-2.73-19.78-1.22-7.1-1.93-9.43-2.84-9.31a8.08,8.08,0,0,1-3-.46,4.68,4.68,0,0,0-3.07,0c-.73.35-1.46.35-1.62,0-.31-.64-1.15-.59-14,.88a84.51,84.51,0,0,0-23.22,7.15c-1,.53-2,.61-2.24.17s-.68-.34-1,.22a1.25,1.25,0,0,1-1.73.34c-.59-.38-3,0-5.44.8-5.21,1.77-8.68,2.18-9.21,1.07s2.49-6.23,3.9-6.39a.8.8,0,0,0,.72-1.18c-.28-.58-.14-.92.29-.77s2.6-2.24,4.8-5.32c6.49-9.09,13.65-12.47,25.57-12.09a20.87,20.87,0,0,0,6.22-.49c.74-.36,1.49-.34,1.67,0,.49,1,16.73-3.51,17.75-5,1.91-2.71,1.26-17.55-1-22-2-4.09-3.68-10.57-3-11.72,1.35-2.21,6.28-3.72,11.38-3.48,2.9.14,5.42.55,5.6.92a.93.93,0,0,0,1.25.23c.51-.25,2.82,0,5.14.48,7.39,1.63,8.75,1.43,10.74-1.54,1.72-2.58,1.88-2.63,7.37-2.35,5.72.29,7.06.5,10.71,1.67a9.81,9.81,0,0,0,3.21.53c2.48-.31,32.49,8.84,33.09,10.1a43.22,43.22,0,0,0,6.26,2.56c3.35,1.2,6.75,2.89,7.56,3.75s1.7,1.2,2,.77c.66-1,1.71,5,1.05,6.14a6.73,6.73,0,0,0,0,3.41c.3,1.42,0,2.85-.7,3.18s-1.1.88-.93,1.22c.48,1,11.39,5.11,12.31,4.67.45-.22,2.64.12,4.86.75a15.64,15.64,0,0,0,4.68.85c.9-.41,2,2.15,1.1,2.58-.41.2-.58,1.18-.39,2.18.26,1.35-.22,2-1.83,2.36a116.42,116.42,0,0,1-12.55,2.59,58.5,58.5,0,0,0-9.7,1.52c-.85.41,3.48,15.36,5.6,19.35.86,1.62.84,2.37-.06,2.45s-.89.7.12,2.17c1.12,1.62,1.11,1.88-.07,1.23s-1.17-.08,0,2.58c1.45,3.3,1.44,3.34-.35,1.2l-1.85-2.21,1,2.4c.59,1.37.56,2.35-.05,2.29s-.48,1.17.43,3.09c2.21,4.64,1.67,7.23-.67,3.25Zm-7.17-12.3c-.41-.14-.37.45.09,1.31s.8,1.06.75.26A1.87,1.87,0,0,0,1328.51,679.67Zm3.32,14.65a.93.93,0,1,1,1.24.44A.93.93,0,0,1,1331.83,694.32Zm1.84-3c-.55-1.15-.59-1.72-.08-1.25a3.59,3.59,0,0,1,1,2.1C1334.64,692.91,1334.22,692.53,1333.67,691.37Zm-787.2,322.28c-.54-1-.94-1.34-.91-.71s-.71,1.3-1.67,1.49-1.79.87-1.86,1.52c-.21,2-2.9,2.63-4.72,1.07a4.41,4.41,0,0,0-3.75-.85c-1.11.35-2.16.33-2.34,0A35.41,35.41,0,0,0,529,1013c-1.23-1.63-1.49-2.45-.75-2.37s.7-.75.11-2c-1.19-2.48-3-3-2.8-.75a2.23,2.23,0,0,1-1,2.09,2.5,2.5,0,0,0-1.25,1.79c-.09.85.14.85.72,0s.71-.79.54-.21a6.22,6.22,0,0,1-2.25,2.32c-1.45.95-2.44.85-3.91-.38-1.77-1.47-2-1.45-2.32.2-.19,1-.87,1.8-1.52,1.73a1.15,1.15,0,0,0-1.3,1,3.11,3.11,0,0,1-1.75,1.89c-1.18.57-1.91.2-2.64-1.31-.55-1.15-1.41-1.91-1.9-1.67s-.83-.14-.76-.83-.13-.85-.55-.19a3.06,3.06,0,0,0-.07,2.51c.38.89.26,1.13-.31.61a2.07,2.07,0,0,0-2.12-.27c-1.56.75-3.18-2.68-4.37-9.29-1-5.51-4.44-20.35-5.6-24.13a22.34,22.34,0,0,1-.81-3.74,34.64,34.64,0,0,0-1.1-4.86,10.79,10.79,0,0,1-.34-5.18,6.5,6.5,0,0,0-.5-4.18,13.19,13.19,0,0,1-1-5.15,47.45,47.45,0,0,0-.36-6.27c-.39-3-.38-6.41,0-15.62a14.53,14.53,0,0,0-.63-4.34c-1.18-3.58-1.49-4.9-1.44-6,.1-2-1.89-5.81-2.8-5.37-.5.24-2.53,0-4.49-.48s-4-.45-4.66.23-1,.79-.8.35c.42-1.19-3.7-2.73-4.63-1.74-.45.47-2.68,1.23-5,1.69a50.61,50.61,0,0,0-7.62,2.24c-9.58,3.91-9.7,3.94-7.76,2.11,1.77-1.68-.1-1-10.79,3.72-1.72.77-3.57,1.24-4.11,1s-.14-.49.9-.66,0-.36-2.29-.41-5,.53-6.15,1.33c-2,1.44-4.59.91-7.1-1.46-1.8-1.7,0-5.44,3.64-7.46a21.41,21.41,0,0,0,5.32-4.58c3.48-4.43,15.07-9.7,21.39-9.73a21.69,21.69,0,0,0,7.35-1.21,6.73,6.73,0,0,1,4.33-.53c1.49.52,4.38-.56,14.46-5.4,7.49-3.6,12.64-6.49,12.71-7.14s3.8-2.86,8.46-5.1c5-2.4,8.5-3.67,8.74-3.17s1.19.46,2.15,0c1.79-.86,11.78-1.87,19.13-1.93,2.26,0,7-.21,10.64-.43a38,38,0,0,1,7.22,0,16.25,16.25,0,0,0,4.81-.2c2.26-.31,4.27-.25,4.46.14s1,.37,1.87,0,2.86-.22,4.47.4,3.12.85,3.34.51c.56-.87,12.44-.36,14.6.62,1.34.61,1.46.58.49-.14-.69-.52.46-.51,2.55,0a49.14,49.14,0,0,0,9.17,1.06c5.63.1,11.38,1.81,11.21,3.34-.19,1.81-7.4,6.73-16.93,11.54-7.39,3.73-9.64,5.2-9.24,6,.29.6,0,1-.56,1s-.91.26-.69.72-.24,1.44-1,2.18-1,1.6-.57,1.9c.87.56-.13,4.63-1.27,5.17-.34.16-1.65,3.42-2.92,7.23-2.36,7.09-3,12.56-1.69,15.22a14.44,14.44,0,0,1,.88,4.32,9.77,9.77,0,0,0,.9,3.87c.4.57.21,1-.43.92-1.14-.12-1,1.14.4,3.23.43.66.19,1-.65.92s-1,.21-.1,1,.81,1.13.17,1.06-.92.21-.72.62a7.81,7.81,0,0,1-.5,3.47c-.47,1.51-.56,2.84-.21,3,.65.23.47,1.17-1.51,7.89-.6,2-.67,4.17-.15,4.72s.55.89.07.74-1.3.69-1.81,1.85c-.71,1.6-.6,2.18.44,2.35.85.14.55.37-.76.6-1.59.28-2,.73-1.49,1.74.36.75.24,1.32-.28,1.27s-1.42,3.13-2,7.07-1.51,7.27-2,7.4c-1.12.28-3.05,5.46-2.48,6.64a1,1,0,0,1-.49,1.27c-.49.23-.84-.06-.77-.66s-.28-.9-.77-.66a1.13,1.13,0,0,0-.36,1.53c.65,1.35-2.19,6.93-4,7.78-.76.37-1.69-.14-2.27-1.23ZM977.39,803.29c-.46-.87-.5-1.46-.09-1.31a1.87,1.87,0,0,1,.84,1.58C978.19,804.36,977.9,804.25,977.39,803.29ZM514.11,1017.06c-.22-.46-.24-.92,0-1a1.94,1.94,0,0,1,1.29.41c.51.32.52.78,0,1A1,1,0,0,1,514.11,1017.06ZM143.83,1127c-.85-.1-1.85-1.52-2.69-3.84-1.53-4.22-3.39-5.14-2.6-1.29.59,2.9.18,5.33-1,5.9-.44.21-.92-.37-1.07-1.29-.92-5.64-2.18-8.25-4.33-9s-2.13-.79-.09-1.08,2-.55.12-4.31l-2-4,.22,3.51.22,3.51-1-2.86c-1.19-3.28-2.55-3.23-2.33.09.14,2.17.1,2.16-1,0-.85-1.68-1.59-2.08-2.77-1.51a2.53,2.53,0,0,0-1.53,2c.06,1,0,1-.49.24-.62-1.11-3.3-.25-2.75.89.18.38-1,1.29-2.65,2s-2.85,1.59-2.69,1.92-.76,1.68-2,3c-1.68,1.72-2,2.73-1.25,3.65a2.13,2.13,0,0,1,.44,2.27,3.22,3.22,0,0,0,.17,2.68c.47,1,.32,1.63-.36,1.55a1.69,1.69,0,0,1-1.28-1.59c-.07-.91-.7-.27-1.65,1.67A11.9,11.9,0,0,0,106,1136a2.26,2.26,0,0,1-.7,2.14c-.52.25-.71-.39-.45-1.59.36-1.68.25-1.6-.66.46-.6,1.36-.67,2.74-.15,3.07s.4.54-.36.46a2.34,2.34,0,0,0-2,1.45,3.14,3.14,0,0,1-2.28,1.71c-.87.07-2,1.24-2.55,2.66-1.54,3.95-3.24,4.24-4.24.74-.46-1.62-.81-2.39-.77-1.69a1.81,1.81,0,0,1-.75,1.65c-.45.22-.76-.18-.68-.88.1-.9-.25-.85-1.16.16-3.24,3.59-4.06,4-4.18,2-.23-3.85-.73-5.56-1.35-4.59-.34.53-1.16.32-1.83-.47s-.79-1.54-.27-1.66.76-1.54.54-3.14-.44-4.28-.49-6a36.06,36.06,0,0,0-.74-5.84,68.42,68.42,0,0,1-1.06-6.9c-.32-3.13-.77-4.27-1.92-4.76a30.49,30.49,0,0,1-4.44-2.85c-1.71-1.28-3.74-2-4.86-1.61s-2.17.07-2.48-.56-2.28-1.51-4.39-1.95c-3.9-.81-6.06-.45-5.42.88.2.41-.5,1.38-1.55,2.15-1.2.89-2.09,1-2.4.37a3.79,3.79,0,0,0-2.26-1.48c-2.28-.57-3-2.06-1.06-2.21.82-.07,1.31-.49,1.1-.93-.42-.87-2.09-.32-8,2.65-2.06,1-3.1,1.29-2.31.56s-4.35.67-11.42,3.11-13.72,4.46-14.78,4.52c-1.36.07-1.61.3-.86.78s.54.73-.44.81-1.61-.29-1.73-.8-1.25-.85-2.51-.75-1.95.4-1.47.7c1.69,1.08-3.1,1.23-5,.15s-1.91-1.53-1.2-5,1.1-3.94,4.25-4.87a8.64,8.64,0,0,0,5.43-4c2.56-3.89,7-6.78,13.24-8.58,2.74-.79,7.55-2.39,10.68-3.55a42.6,42.6,0,0,1,11.15-2.28c4.56-.14,6.95-.87,14.43-4.38,12.26-5.75,12.12-5.63,10-8.31-1.13-1.45-1.35-2.18-.61-2.1,1.58.17,1.06-2.18-2.32-10.54-3.72-9.19-3.41-10,5.24-13.45,3.63-1.45,6-2.76,5.51-3.06-1.6-1,.67-3.77,4.18-5.06,1.94-.71,3.38-1.61,3.2-2s.87-.31,2.33.14a8.33,8.33,0,0,0,3.22.56,11.37,11.37,0,0,1,3.83.74,29.71,29.71,0,0,0,7.58.95,28.92,28.92,0,0,1,7.61,1c1.82.58,3.71.86,4.2.62a2.06,2.06,0,0,1,2,.59,2.58,2.58,0,0,0,2.68.26,1.62,1.62,0,0,1,2.19.5,1.31,1.31,0,0,0,1.66.76c.58-.28,4.32.69,8.32,2.15s8.11,2.53,9.15,2.38a2.45,2.45,0,0,1,2.46.94c.32.66,1,1,1.42.8,1.33-.64,10.68,2.94,12.7,4.85a27.24,27.24,0,0,1,4,6.26c2,4.23,2.55,4.66,7.79,6.59,3.37,1.24,5.89,1.63,6.31,1s.64-.62.58,0,1.52,1.12,3.52,1.21,3.79.51,4,.92,1.65.6,3.22.43c3.23-.36,5.13.91,4.21,2.8-1.09,2.24-5.86,6.3-7.24,6.15-.73-.08-4.23,1.11-7.79,2.64a77.86,77.86,0,0,1-8.56,3.25c-1.23.27-1.91.86-1.64,1.42s-.47.83-2.14.61c-2.05-.27-3.27.19-5.8,2.19-1.76,1.39-3.5,2.43-3.87,2.3s-1.06.72-1.54,1.89-1,1.87-1.15,1.55-.84.19-1.52,1.13a3.62,3.62,0,0,0-.47,3.31c.9,1.87,1.13,6.7.34,7.08a3.28,3.28,0,0,1-1.85-.2c-.92-.32-1.09.81-.56,3.79a17.52,17.52,0,0,1-.56,7.75c-1,2.56-.94,3.54.06,3.66.75.09,1,.34.53.57a4.81,4.81,0,0,1-2.19.24ZM422.56,855.56c-9.35,1.76-13.85,3.4-32.31,11.81-9,4.08-17.7,7.86-19.43,8.39-6.76,2.1-9.1,2.56-9.44,1.84-.2-.41-1.3-.29-2.45.26s-2.28.63-2.5.17-1.57-.28-3,.41a11,11,0,0,1-5.65.72c-5.41-.93-15.4-.93-17.34,0-1.43.69-1.93.49-2.07-.81s-.3-1.42-.82-.12c-.67,1.7-4.64,4.06-4.5,2.67.17-1.65-3.23-2.51-8.06-2.05a28,28,0,0,1-7-.06,3.51,3.51,0,0,0-3.12.64c-1.29,1.36-5.27,1.42-5.13.07.12-1.12-2.84-1-3.57.16-.29.45-2.13,1.12-4.09,1.49s-9.92,3.66-17.69,7.3c-8.36,3.92-14.27,6.29-14.5,5.82s-1.32-.08-2.46.8c-2.2,1.7-8.75,1.68-9.57,0-1-2.07,2-6.56,6.47-9.73,1.79-1.26,3-2.76,2.75-3.34s.19-2,1-3.14,1.27-2.27,1-2.48c-1.41-.9,20-11,28.3-13.31a45,45,0,0,0,11.16-4.71c3-2,4.84-2.65,6.42-2.4,2.81.45,5.71-.94,6.21-3a12.79,12.79,0,0,1,3.28-4.2c3.86-3.51,4-6.3.8-12.56-1.45-2.81-2.25-5.07-1.79-5,1.7.18-5.05-12.28-7.81-14.42-2.5-1.94-2.85-2.69-5-10.66C299,800,298,797.33,297,796.88c-1.84-.85-9.27-14.91-8.16-15.46.46-.23.15-.49-.67-.59-1.27-.15-1.64-1-2.35-5.31-.46-2.82-2.24-10.13-4-16.22s-2.92-12-2.67-13.17c.42-2,.65-2,4.07-.46,2,.89,4.42,1.24,5.38.77,1.83-.89,4.82,0,6.91,2.09.77.77,2.1.8,3.58.09a7.55,7.55,0,0,1,5.45,0c1.71.62,4.07,1.45,5.25,1.84a5.34,5.34,0,0,1,2.82,2.1c.37.76,3.41,2.3,6.76,3.42s6,2.44,6,2.93.32.7.83.45,1.88.37,3,1.37c3.42,2.94,7.38,5,8.56,4.41a1.73,1.73,0,0,1,2,.59c2,2.53,2.43-15.14.53-20.52a7,7,0,0,1-.19-3.8c.44-1.37.28-1.73-.84-1.85-.95-.1-.73-.69.69-1.87,2.22-1.85,4-1.37,5.4,1.41.41.83,1,1.1,1.33.59s1-.12,1.44.86.37,1.73-.22,1.66-.6.34,0,.95c1.53,1.45,1.71,1.26,3-3.17,1.13-3.77,1.22-3.85,3.2-2.83a8.61,8.61,0,0,1,3.16,3.32c1.07,2.17,1.27,2.17,4.25.19,2.41-1.6,3.39-1.83,4.28-1,.63.6,1.37.74,1.64.31s.77-.07,1.1.79,3,3.45,5.92,5.76a43.33,43.33,0,0,1,7.84,8.09A20.9,20.9,0,0,0,386,759c.55.3,2.09,2.62,3.43,5.14,1.76,3.33,2.21,5.06,1.64,6.31a4.74,4.74,0,0,0,2.46,5.9c.82.29,1.12.7.66.92-1.33.64-1.36,6-.06,10.23a105.34,105.34,0,0,1,2.35,12.69c.63,4.81,1.48,9.46,1.89,10.32a1.6,1.6,0,0,1-.51,2.17,1.43,1.43,0,0,0-.63,1.91c.36.74.11,1.25-.58,1.18s-.77.34.07,1.23.82,2.56-.31,5.48c-.95,2.47-1.16,4.53-.52,5.13s.9,2.24.7,3.76,0,2.57.54,2.31.86.05.79.65.47.81,1.19.46,1.48-.28,1.68.15,1.17.67,2.13.53a20.85,20.85,0,0,1,6.08,1,72.73,72.73,0,0,0,11.9,2.84c1.55.21,2.77.88,2.7,1.5s.59.6,1.79-.29a2.91,2.91,0,0,1,3.61-.34,3.49,3.49,0,0,0,2.49.7c1-.5,7,1.6,7.5,2.64a1,1,0,0,1-.54,1.25c-.51.25-.52.83,0,1.31,2.74,2.59-5.51,7.49-15.88,9.44ZM276.67,888.83a3.59,3.59,0,0,1,2.1-1c.69,0,.31.37-.85.93S276.2,889.34,276.67,888.83ZM839.79,607.4a11.11,11.11,0,0,1,.14-4.19c.37-2.16.22-3-.44-2.53a.77.77,0,0,1-1.31-.45c-.17-.67-.58-.79-.92-.26a1.15,1.15,0,0,0,.36,1.59c.56.36.4.7-.38.79s-2.33,1.26-3.51,2.59c-4.09,4.58-5.13,4-3.35-1.92a18.23,18.23,0,0,0,.89-5.82c-.24-1.7-.65-1.77-3.22-.54-1.62.78-3.36,1.15-3.87.82s-.49-.8,0-1.05c2.53-1.21,7.42-21,5.94-24.1a9.74,9.74,0,0,1-.26-4.29,72.12,72.12,0,0,0,.89-11.94,63.58,63.58,0,0,1,.55-8,47.92,47.92,0,0,0,.45-7.19c0-2.11.31-4,.79-4.27a1,1,0,0,0,.41-1.4c-.26-.53.06-3.6.71-6.82a32.48,32.48,0,0,0,.78-8.22c-.22-1.3-.32-7.21-.22-13.12.14-8.77.67-11.83,2.89-16.62,1.5-3.23,3.28-6.14,4-6.47s.83-1,.2-1.59-.57-1,.5-1.12c1.31-.11,1.27-.34-.28-1.47-1-.74-2.15-1.19-2.53-1s-2.67-.11-5.08-.66c-3.07-.7-4.56-.6-5,.32-.33.73-.91,1.21-1.28,1.08s-.86,1.5-1.09,3.63-.93,4.11-1.56,4.42c-1.5.72-12,29.23-12.15,32.85,0,1.53-1.71,7.53-3.71,13.33s-3.31,10.67-2.92,10.8.06.55-.73.93a2.42,2.42,0,0,0-1.3,2.18c.08.95-1,2-2.94,3-2.12,1-3.14,2.12-3.3,3.58s.1,2.06.79,2-.86.88-3.16,2.11c-2.6,1.39-4.35,1.89-4.62,1.31s-1.18.76-2.08,2.81c-1,2.32-1.19,3.8-.44,3.91s.63.46-.23.88-2.9.24-4.72-.32l-3.3-1-1.2,3.05c-1.13,2.89-3.39,6.43-4.43,6.93-.26.13-.76-.36-1.1-1.08s-.91-.87-1.31-.24-.63.59-.55-.21a1.18,1.18,0,0,1,1.15-1.17c.56.06.9-.21.75-.6s-.45-1.43-.69-2.31c-.58-2.19-5.2-.37-6.07,2.38-.28.89-.17.95.35.2s1-.7,1.19-.21c.38.79-.66,1.83-1.61,1.61-.2,0-1.09,1.55-2,3.54q-2.55,5.67-3.59,3.53a.93.93,0,0,0-1.24-.44c-.46.22-.55,1-.19,1.75s.1,1.39-.84,1.47-1.26.59-.94,1.26a2.25,2.25,0,0,1-.52,2.28c-.59.62-.71,1.36-.28,1.64s-.32,1.07-1.67,1.77c-1.56.81-2.65.85-3,.11-1.09-2.27-2.5-1.28-4.73,3.32-2.5,5.16-4.45,6.85-4.67,4a17.81,17.81,0,0,0-.39-2.65,2.63,2.63,0,0,1,.14-1.67,8.26,8.26,0,0,0-.34-3.63c-.94-3.68-2.26-2.91-4.93,2.86a26.32,26.32,0,0,1-3.87,6.14c-1.65,1.65-2,1.69-2.55.3-.35-.89-.26-1.57.19-1.53,1,.11,3-10.36,2.29-12-.44-1-.68-.9-1.09.26-.83,2.35-2.19,2.5-1.51.16a8.83,8.83,0,0,0,.36-3.33,17.5,17.5,0,0,1,1-5.28,31.25,31.25,0,0,0,1.23-7.71,13.93,13.93,0,0,1,.47-4.43c.27-.42.31-2.88.09-5.48a24.3,24.3,0,0,1,.37-7.17c1.48-4.75,1.65-15.91.26-17.78-.74-1-.93-1.77-.43-1.72.84.09,1.21-11.14.46-14.22a6.91,6.91,0,0,1,.2-3.07,2.79,2.79,0,0,0-.43-2.61c-.54-.51-.44-1,.23-1s1.55-3,2-6.56a26.17,26.17,0,0,1,4.33-12c3.58-5.58,4.2-7.37,1.78-5.09a1.66,1.66,0,0,1-2.43.22,1.48,1.48,0,0,0-2.15.08c-.58.61-1.24.72-1.47.25s.18-1.31.92-1.86-1-1-4.87-1a32.48,32.48,0,0,0-13.15,2.71c-3.82,1.5-7.54,2.65-8.25,2.56a1.16,1.16,0,0,0-1.4.82c-.19,1.81-5.57,5.15-7,4.35-.89-.5-1.29-.37-1.25.37.09,1.61-8.7,4.72-10.65,3.77-.88-.43-3-.17-4.62.58-1.82.81-2.74.89-2.3.19s-.12-.76-1.54-.09c-1.25.59-2.68.81-3.19.48s-2.4.12-4.21,1c-2.58,1.24-3.8,1.27-5.67.14s-2.29-1.84-2-3c.22-.86.16-1.65-.11-1.75s1-1,2.88-2.09c4.42-2.49,8-6,9.16-8.85,1-2.62,7.9-7.36,12.35-8.52,1.64-.43,9.48-3.22,17.42-6.21S725.68,467.61,728,467c4.52-1.1,12.83-6.14,15-9.09,1.52-2.07,17.07-9,19.13-8.49.78.19,3.83-.23,6.76-.92s5.47-1,5.62-.65,2.31-.07,4.79-.88,4.94-1.06,5.52-.52,2.33.64,3.94.25a24.74,24.74,0,0,1,5.56-.61c1.45.05,4.69,0,7.2-.06l9.39-.31A24.28,24.28,0,0,0,817,445a1.26,1.26,0,0,1,1.7.3c.24.5.81.55,1.26.12s2.6-.17,4.78.6a16.79,16.79,0,0,0,6.27,1,12.48,12.48,0,0,1,4.07.09c1,.25,5.59-1.11,10.55-3.13,5.52-2.24,10.41-3.64,13.17-3.76a43,43,0,0,0,7.63-1.08,31.15,31.15,0,0,1,7.33-.78,18.49,18.49,0,0,0,5.06-.38,12.4,12.4,0,0,1,4-.38,12.25,12.25,0,0,0,4.29-.51,5.18,5.18,0,0,1,3.53.38,5.31,5.31,0,0,0,3.72.28,11,11,0,0,1,4.8-.25,11,11,0,0,0,4.75-.22,3,3,0,0,1,2.64.11c.66.44,3.7.91,6.75,1.05s5.79.76,6.09,1.38a1.24,1.24,0,0,0,1.64.6,6.34,6.34,0,0,1,3.55.23,12.32,12.32,0,0,0,4.46.48,4.23,4.23,0,0,1,3.07.72,2.19,2.19,0,0,0,2.26.43,2.28,2.28,0,0,1,2.33.5c.62.59,1.41.63,1.75.1s1.84-.81,3.33-.61,2.58.09,2.42-.24,1.2-.16,3,.38a26.94,26.94,0,0,0,5.95,1c3,0,5.17,2.77,3.08,4-.75.43-8.35,4.23-16.87,8.44l-15.51,7.66-1.72,4.25c-.95,2.34-1.36,4.48-.93,4.76s.37.71-.15,1c-1.11.53-4.65,11.78-4.74,15,0,1.23-.15,3.67-.26,5.43s-.28,5.82-.38,9c-.19,6.17-4.35,20.61-6.19,21.49-.68.33-.61,1.08.2,2,1.11,1.31,1,1.45-.6,1.06s-1.7-.28-.58.79c.71.68.86,1.19.34,1.14s-1.16.72-1.41,1.72a14.85,14.85,0,0,1-2.23,4.18c-1,1.3-1.6,2.61-1.39,2.92,1.14,1.66.89,2.79-1.08,5a10.34,10.34,0,0,1-3.38,2.73c-.66.15-2.18,1.82-3.38,3.71a18.42,18.42,0,0,1-3,3.88c-2.15,1.19-3.92,3.66-3.4,4.74a1.2,1.2,0,0,1-.31,1.63c-.49.23-.84,0-.79-.5s-.75-.3-1.78.46c-1.6,1.19-2,1.07-2.91-.75-1.36-2.84-3.58-2.4-7.9,1.54-1.92,1.76-3.89,3.15-4.38,3.1s-.95.48-1,1.18.12.87.54.22.72-.52.8.43a1.4,1.4,0,0,1-1.15,1.58c-.7.06-1.67,1.6-2.14,3.42a9.09,9.09,0,0,1-2.83,4.61c-1.08.71-1.92,1.7-1.87,2.19a1.79,1.79,0,0,1-1.1,1.46c-.65.31-1.06.86-.89,1.2.51,1.08-3.53,7.34-4.84,7.51a2.52,2.52,0,0,0-1.76,1.26l-1.81,3.79c-1,2.18-1,2.43.12,1.33.78-.75,1.3-1,1.17-.53-.24.83-1.56,2-6.43,5.71-1.46,1.11-2.34,2.42-2,2.91s.38,1,0,1.1c-1.62.48-2.72,1.49-2.09,1.9.38.24-.37,1-1.66,1.79s-2.54.95-2.78.46ZM836.56,605c-.22-.46-.24-.92,0-1a1.94,1.94,0,0,1,1.29.41c.51.32.52.78,0,1A1,1,0,0,1,836.56,605ZM310.08,826.56c-.46-.87-.5-1.46-.09-1.31a1.87,1.87,0,0,1,.84,1.58c.05.8-.24.69-.75-.26ZM739.17,591.41a1.94,1.94,0,0,1,.41-1.29c.32-.51.78-.52,1,0a1,1,0,0,1-.41,1.29C739.72,591.6,739.26,591.62,739.17,591.41Zm29.57-15.82c-.22-.46-.24-.92,0-1A1.94,1.94,0,0,1,770,575c.51.32.52.78,0,1A1,1,0,0,1,768.74,575.59Zm-431,184c-.46-.87-.5-1.46-.09-1.31a1.87,1.87,0,0,1,.84,1.58c.05.8-.24.69-.75-.26ZM947.52,453.88a3.59,3.59,0,0,1,2.1-1c.69,0,.31.37-.85.93S947.05,454.39,947.52,453.88ZM409.33,677.08a15.6,15.6,0,0,1,5.45-2.62c2.43-.53,1.94-.14-2.42,2S407.4,678.64,409.33,677.08Zm72.51-35c-.93.1-6.08,2.17-11.45,4.61s-13.76,6.23-18.67,8.43-13.52,6.52-19.14,9.6c-7.4,4.06-12,6.06-16.65,7.25-3.54.91-7.87,2.21-9.63,2.89-3.86,1.49-6.09,1.46-5.11-.09.39-.6-1.1-.81-3.48-.49a54.26,54.26,0,0,1-6.76.5,10.91,10.91,0,0,0-3.62.42,2.59,2.59,0,0,1-2.18-.25c-1.6-1-5.61-1.17-7.43-.34a7,7,0,0,1-3.61.25,3.72,3.72,0,0,0-3,.53c-.5.53-2,.28-3.41-.55s-2.84-1.15-3.26-.72c-1.27,1.34-5.17,1.28-5.82-.08s-2.12-1-5,.79c-1.24.76-2.24.1-2.26-1.48,0-1.11-3.11-.84-4.85.42a3,3,0,0,1-3.65.11,4.22,4.22,0,0,0-3.64-.33c-2.89,1.39-7.95,1.65-7.82.4.07-.65-.16-.71-.52-.15-1,1.53-13,5.75-12.87,4.52.07-.65-1.17-.29-3.19.93-1.82,1.1-3.46,1.67-3.65,1.28s-.74-.34-1.22.13a2.79,2.79,0,0,1-2.57.25,3.23,3.23,0,0,0-3,.62,2.08,2.08,0,0,1-2.21.62,2,2,0,0,0-2.14.57c-1,.9-1.05.85-.46-.23s.41-1.4-1.21-1.44a9.85,9.85,0,0,0-4.16,1.14c-1.2.66-2.15.85-2.1.43s-.79-.65-1.87-.49c-2.31.33-3.46-1.48-1.95-3.08.59-.62.65-1.4.14-1.73s-.12-1,.89-1.47c1.27-.61,1.49-1.18.73-1.9s-.51-1.3,1-2c1.14-.55,2.26-.61,2.48-.14.53,1.1,4-1.76,5.9-4.83s12.75-8,18.79-8.57c2.36-.23,5.16-.56,6.21-.74a10.89,10.89,0,0,1,3.66.1,15.33,15.33,0,0,0,5.8-.82,19.78,19.78,0,0,1,6.66-.9c2.17.29,4.16-.52,11.66-4.74,5-2.8,9.32-5.64,9.64-6.33a8.59,8.59,0,0,1,2.27-2.49,16.45,16.45,0,0,0,3.44-4.7c1.21-2.37,2-3.18,2.61-2.59,1.24,1.26,1.27-7.54,0-10.11-.6-1.24-.58-2.13,0-2.07s.63-.83,0-2.08-.59-2.15,0-2.08c1.22.13,1.15-.06-3.48-10.46-1.91-4.29-3.65-7.28-4.11-7.06s-1.23-.69-1.75-2a15.2,15.2,0,0,0-1.31-2.73c-.19-.19-1-1.21-1.74-2.26s-1.82-1.86-2.34-1.8-1.26-.53-1.63-1.32c-1-2.05,2.25-6.38,6.17-8.27,4.33-2.08,5.71-3.58,4.42-4.79-.57-.53-.64-1.16-.16-1.39s.59-1.31.25-2.41c-.94-3,2.56-8.24,6.84-10.29,2-1,3.66-2.24,3.72-2.87.14-1.35,21.76-11.6,22.27-10.56.18.38,1.85.27,3.72-.23,3.83-1,13.74-1.4,15-.56a3.23,3.23,0,0,0,2.57-.27,8.7,8.7,0,0,1,4.65-.17,8.65,8.65,0,0,0,4.58-.14,2.49,2.49,0,0,1,2.85.64,4.13,4.13,0,0,0,3.91.79,6.17,6.17,0,0,1,4.41.62,2.34,2.34,0,0,0,3.12.06c1-.82,1.61-.76,2.08.21a4,4,0,0,0,2.93,1.65A3.52,3.52,0,0,1,450.4,556a6.4,6.4,0,0,0,2.36,3.2,14.9,14.9,0,0,1,3.71,4c2,2.9,2.08,3.55.85,5.59-1.08,1.79-2.2,2.49-5,3.09s-12.73,5.19-17.64,8.15c-.46.28.38,4.68,1.86,9.8s3,11,3.42,13.07,1,4.82,1.31,6.08a22.69,22.69,0,0,1,.59,4.36,20.22,20.22,0,0,0,1.46,5.62c.79,2,1.24,4.38,1,5.37-.3,1.21-.08,1.84.69,1.92a3.2,3.2,0,0,1,1.95,1.8c.44.92,1.07,1.26,1.4.76s.78-.53,1-.05,2.32.92,4.64,1a27.3,27.3,0,0,1,6.69,1,10.76,10.76,0,0,0,5.28.15c1.54-.4,3.25-.3,3.79.21a2.5,2.5,0,0,0,2.57.17c.87-.42,1.78-.36,2,.13s.64.55.91.14,1.94-.55,3.72-.31a10.84,10.84,0,0,0,4.59-.2c2.24-1.07,7.86,1.16,8.56,3.39.55,1.74,0,2.36-4,4.76a25.64,25.64,0,0,1-6.33,2.94ZM455.77,569c.64-1,0-1-2.47.24-2.62,1.3-2.9,1.64-1.31,1.57C454.66,570.72,454.76,570.68,455.77,569ZM393.65,676.68a3.59,3.59,0,0,1,2.1-1c.69,0,.31.37-.85.93S393.18,677.19,393.65,676.68Zm740-405.48a1,1,0,0,1,.41-1.29c.46-.22.92-.24,1,0a1.94,1.94,0,0,1-.41,1.29C1134.34,271.67,1133.89,271.69,1133.65,271.2Zm-10.34,1a5.48,5.48,0,0,1-3.29-.35c-2.19-1.17-20.53,7.33-20.16,9.34.22,1.17.13,1.19-.49.12-.81-1.41-5.87-.16-12.76,3.15a16.3,16.3,0,0,1-5.87,1.69c-1.19-.05-4.33.83-7,2a25,25,0,0,1-9,1.94c-2.3-.06-6.47,0-9.26.07-7.27.27-18.71-1.32-19.36-2.68a1.25,1.25,0,0,0-1.63-.64c-.59.28-3.85-.36-7.24-1.43a72.16,72.16,0,0,0-8.71-2.27,31,31,0,0,1-4.63-1c-3.19-1-13.95-1-17.71,0-1.85.5-3.68.58-4.07.18s-4.18.86-9.15,3.14c-4.64,2.13-8.72,3.77-9.07,3.63-1.82-.69-9.81.22-11.75,1.34-1.43.83-2.66.9-3.41.19a1.53,1.53,0,0,0-2.15-.06c-.7.74-1,.56-1.15-.63-.43-4.22.47-5.9,4.28-8,2.11-1.17,3.91-2.55,4-3.06.44-2.35,5.38-6.92,10.18-9.42,5.61-2.92,7.36-3.2,18.2-3,6.4.15,11.17-.7,15.75-2.79,1.35-.62,1.88-.41,2,.78s.29,1.32.89.09c1.28-2.64,3.69-3.79,6.15-2.93s2.36.79,2.49-1.29c.07-1.17.73-2.19,1.47-2.27,1.06-.12.84-.93-1-3.88-1.31-2.05-3-4-3.67-4.31-1-.48-3-4.17-3.8-7.36-.32-1.21,2.91-2.23,4.62-1.44a3.8,3.8,0,0,0,2.72.24,2.14,2.14,0,0,0,.94-2c-.14-1.69,2.7-3.39,4.12-2.48a1.07,1.07,0,0,0,1.49-.26c.3-.47.76-.42,1,.12s.91.48,1.64-.35c2.38-2.69,8.63-5.68,10.3-4.91.89.41,1.85.37,2.13-.08s.81-.23,1.15.49,1.37,1,2.57.38,4.45-.19,7.88.82c3.27,1,6.25,1.62,6.63,1.46,1.53-.66,18,5,21.63,7.44,1.37.91,2.78,1.52,3.14,1.35s.93.25,1.26.94a1.33,1.33,0,0,0,1.72.72c1.5-.72,6.47,1.28,7.26,2.92.37.76,2.34,1.21,4.64,1.05s4.19.13,4.43.63.68.51,1,0a1.08,1.08,0,0,1,1.5-.25,1.09,1.09,0,0,0,1.52-.27c.31-.48.7-.33.87.34s1.32.87,2.89.32c1.93-.67,2.38-.56,1.76.43s-.58,1.21.29.81c1.38-.64,14.39,2,17.73,3.6,1.35.65,3,.91,3.64.6a1.19,1.19,0,0,1,1.6.26c.22.46,1,.56,1.71.21s1.26-.2,1.21.31.91,1.24,2.15,1.61c2,.61,3.78,3.88,2.45,4.62l-8.05,4.48c-5.32,3-7.67,3.92-8,3.25s-.85-.45-1.58.48a6.14,6.14,0,0,1-3,1.85Zm-116.24-28c-.22-.46-.24-.92,0-1a1.94,1.94,0,0,1,1.29.41c.51.32.52.78,0,1A1,1,0,0,1,1007.07,244.19ZM688.7,273.13c-.93-2.65-3.2-2.07-6.16,1.59-3.15,3.89-7.88,5-13.15,3.2-6.3-2.21-6.3-4.4,0-4.19a6.27,6.27,0,0,0,4-1.09c.7-.74,1.07-.75,1,0-.19,1.79,2.39,1.16,4.06-1a6.18,6.18,0,0,0,.86-4.71,82.94,82.94,0,0,1-1-10.36c-.18-4.17-.44-8.93-.57-10.57a13,13,0,0,1,.07-3.65c.77-1.69.32-5.84-1.29-12-2.26-8.58-2.38-10.8-.85-15.72.69-2.21,1.08-4.39.86-4.83a2,2,0,0,1,.61-1.87,4.1,4.1,0,0,0,.73-3c-.32-2.25-5.22-4.54-7.43-3.48a5.55,5.55,0,0,1-3.73-.27,5.57,5.57,0,0,0-3.76-.26,8.09,8.09,0,0,1-4.18.09,23.85,23.85,0,0,0-7.88.55c-6.16,1.37-11.8,1.68-11.69.65,0-.41-1.65.15-3.77,1.25-5,2.61-8.89,3.68-8.75,2.42.09-.83-7.5,2.06-10.63,4.06a1.88,1.88,0,0,1-2-.51c-.63-.6-1.4-.68-1.72-.19s-1.74.49-3.17,0c-1.58-.55-3.1-.44-3.88.3a2.84,2.84,0,0,1-2.95.45c-.91-.42-1.84-.49-2.05-.15s-1.65.36-3.19.05c-2.75-.55-2.78-.6-2.06-3.06a6.53,6.53,0,0,1,3.56-3.85,12.12,12.12,0,0,0,3.89-2.86c3.73-5.26,7-8.26,11.19-10.32,2.58-1.26,5.07-2.06,5.52-1.77s1.89,0,3.2-.62,2.85-.7,3.54,0a1.52,1.52,0,0,0,2.17,0,1.8,1.8,0,0,1,2.14-.36c1.31.81,6,.37,12.62-1.19,8.31-2,26.93-11.66,26-13.57-.62-1.28,7.61-7,12.86-9s6.75-2.33,9.52-2.49c3.63-.21,10.73-1.1,15.22-1.89,6.31-1.12,12-1.4,15.57-.79a18.29,18.29,0,0,0,5.64-.07,36.27,36.27,0,0,1,8-.12,79.29,79.29,0,0,0,8.65.26c1.9-.1,3.63.19,3.84.63s1.65.52,3.18.16a6.22,6.22,0,0,1,4.39.51,2,2,0,0,0,2.53.19c.54-.58,1.45-.36,2.21.53s2,1.18,3.41.49c1.17-.56,2.52-.77,3-.46a1.55,1.55,0,0,0,1.82-.43,1.61,1.61,0,0,1,1.92-.36c.54.35.49.87-.11,1.17-.79.39-.64.6.56.75a9.07,9.07,0,0,0,4-.91,11.4,11.4,0,0,1,4.45-1c3,.13,5-2.1,3.66-4-.62-.83-.69-1.46-.18-1.41,1.19.13-2.36-16.18-3.82-17.56a1.7,1.7,0,0,1-.46-2c.38-.6.74-.31.93.74s.31.32.33-1.39a14.23,14.23,0,0,0-.57-4.45,33.33,33.33,0,0,1-1.17-6.1c-.39-3.28-.91-4.72-1.65-4.62-1.46.19-1.59-2.58-.16-3.27.63-.3.87-1.7.53-3.09a19,19,0,0,1-.53-4.44,3.1,3.1,0,0,0-.69-2.4c-.43-.28-.36-1,.17-1.52s.36-4-.37-7.68-1-6.81-.67-7a.82.82,0,0,0,.27-1.11c-.55-1.14,1-10.85,1.75-11.22,1.11-.53.53-8.3-.71-9.47-.77-.73-.74-1.05.1-1s.86-.24.05-1S775.5,64.25,776,64s.28-1.49-.36-2.84-.84-2.77-.43-3.17,0-3-.89-5.75c-1.25-3.86-1.83-4.82-2.48-4.13-.47.5-2,.24-3.31-.58s-3-1.23-3.62-.92a1.19,1.19,0,0,1-1.61-.37c-.25-.51-.87-.48-1.38.06s-4,1.27-7.74,1.62c-5.67.53-8.33,1.35-15.92,4.94-5,2.37-8.55,3.7-7.87,3,1-1,.67-1.11-1.36-.31a50.52,50.52,0,0,0-5.3,2.56c-1.56.89-3.35,1.23-4.26.81a13.22,13.22,0,0,0-5.05-.47,40.06,40.06,0,0,1-7.29-.29c-2.91-.43-3.84-.23-4,.82s-.46,1.27-1.69.84-1.3-.67-.34-1.15c.66-.34-1-.54-3.66-.45s-4.93-.33-5-.92c-.14-1.12.46-1.75,7.73-8,2.41-2.07,6.16-5.36,8.32-7.3,3.29-2.94,4.85-3.76,9.48-5l10.13-2.66c2.52-.66,10.91-4,18.64-7.41s15.52-6.65,17.3-7.2,6.92-3.49,11.42-6.54c6.26-4.24,9.25-5.8,12.71-6.64,2.49-.6,6.41-1.6,8.71-2.22a44.72,44.72,0,0,1,8.7-1.24,35.68,35.68,0,0,0,8.19-1.27c5-1.58,16.94-2,29.36-1,3,.23,6.23,0,7.29-.48a3,3,0,0,1,3,.12c.59.56,3.85,1.08,7.24,1.15,5.88.13,17.33,3.47,16.82,4.91-.13.38.29.12.94-.56s1.37-.85,1.65-.27.72.59,1,.11a1.29,1.29,0,0,1,1.78-.06c1.18.77,4.28.91,6.13.27a15.08,15.08,0,0,1,7.41-.24c.94.33,1.95.23,2.24-.22.71-1.11,6-.35,6.6,1,.27.57,1.47,1,2.66,1l2.17-.06-.9,3.34c-.89,3.32-1,3.38-10.53,7.9-5.3,2.51-10.6,5-11.77,5.48a70.73,70.73,0,0,0-6.8,3.88c-3.4,2.15-4.63,2.62-4.54,1.72.16-1.53-1.36-.87-2.92,1.27-.78,1.07-1.47,1.4-2.09,1a3.19,3.19,0,0,0-2.6.22c-.92.44-1.26,1.07-.76,1.4s.17,1-.76,1.4a3.26,3.26,0,0,0-1.81,2.08q-.13,1.27,1,.1c.79-.83,1.14-.74,1.22.31a1.41,1.41,0,0,1-1,1.62c-.6.07-1.31,1-1.57,2-.37,1.45-.47,1.52-.45.31,0-1.75-.9.23-4.68,10.07-1.36,3.54-2.18,7-1.83,7.77s.24,2.91-.26,4.84-.52,4.29-.05,5.26.3,3.3-.37,5.19a52.81,52.81,0,0,0-1.9,8.15c-.38,2.6-1.23,5-1.89,5.3-.82.39-.78,1,.14,2s1,1.61,0,2.05c-.72.35-1.17.94-1,1.31.6,1.25-1.52,8.16-2.67,8.71-.63.3-.73,1.4-.22,2.44a5.8,5.8,0,0,1-.42,4.46c-.73,1.41-1,2.76-.66,3,.84.54-1.81,4.24-3.21,4.47a.91.91,0,0,0-.81,1.09,2.6,2.6,0,0,1-.13,1.61,49.45,49.45,0,0,0-1.43,5.59c-.7,3.21-1.72,5.22-3,5.82-1.4.68-2,2.16-2.1,5.6-.2,5-2.54,9.56-4.09,8-1.38-1.42-3.71.3-4.71,3.48-.57,1.81-.48,3.26.24,3.76s.73.67.18.5-1.62.74-2.39,2-1.92,2.34-2.57,2.39-1.87,2-2.71,4.39c-1.23,3.45-2,4.42-4.09,5-1.73.45-2.52,1.12-2.44,2.09a14.54,14.54,0,0,1-1.73,5c-1.36,2.67-2.47,3.75-4.24,4.11-2,.41-2.51.09-3.05-2-.62-2.34-.67-2.35-1.07-.21a4.78,4.78,0,0,1-1.81,3,11.19,11.19,0,0,0-2.58,2.14c-1.51,1.76-1.91,1.59-3.75-1.59-.83-1.43-1.83-2.27-2.22-1.86-3.18,3.31-3.77,3.54-5.11,2a6,6,0,0,1-1.28-3.58,5.1,5.1,0,0,0-1.11-3.25c-1-1.08-1.88-.87-5.81,1.45-2.54,1.5-6.14,3.42-8,4.26l-11.37,5.15c-7.56,3.41-8.12,3.83-10.44,7.78-1.35,2.29-2.32,4.49-2.14,4.87s-.46,2.71-1.41,5.18-1.32,5-.83,5.63.38,1.19-.68,1.27-1.34.6-.91,1.5.29,1.24-.17,1.08-1.22.67-1.7,1.84-1,1.9-1.11,1.62-.8.9-1.48,2.61-1.74,3.37-2.37,3.67a1.17,1.17,0,0,0-.68,1.49c.31.64,0,.84-1,.62s-2,.5-3.12,2.29c-1,1.52-1.17,2.55-.47,2.46s-.09.47-1.67,1.23c-5,2.38-12.66,14.23-11.21,17.24.2.43-.41,1.15-1.36,1.6s-1.68.37-1.6-.41c.16-1.55-3.42,3.72-4.64,6.81a4.92,4.92,0,0,1-2.48,2.74q-1.58.46-.94,2.47a2.12,2.12,0,0,1-.78,2.68c-1.22.57-1.3.47-.55-.75,1.1-1.8.83-1.64-3.6,2.19-2,1.73-3.42,3.46-3.13,3.83s-.8,1.43-2.4,2.34a14.16,14.16,0,0,0-3.48,2.52,15.51,15.51,0,0,1-3.22,2.62c-2.4,1.58-2.74,1.55-3.38-.27Zm22.54-15.46a1.87,1.87,0,0,1,1.58-.84c.8-.05.69.24-.26.75s-1.46.5-1.31.09Zm-89.14-48.45c-.52-.34,0-1,1.27-1.65s2.15-.59,2.08,0a2.33,2.33,0,0,1-3.36,1.61ZM873.37,2.33c-.46-.87-.5-1.46-.09-1.31a1.87,1.87,0,0,1,.84,1.58C874.17,3.39,873.88,3.29,873.37,2.33Z"/></g></g></svg>