<svg xmlns="http://www.w3.org/2000/svg" viewBox="0 0 124.12 90.45"><defs><style>.cls-1{fill:#6492dd;stroke:#6492dd;stroke-miterlimit:10;stroke-width:6px;}</style></defs><title>cloud01</title><g id="Layer_2" data-name="Layer 2"><g id="Layer_1-2" data-name="Layer 1"><path class="cls-1" d="M4.42,61.57c3.09-7.12,10.91-12.2,20.08-12.28a16.64,16.64,0,0,1-4.61-11.38c0-9.67,8.67-17.56,19.55-18C41.39,9.6,52.06,2.18,64.11,3.07S85.41,13,85.22,23.53a19.44,19.44,0,0,1,2.58-.17c9.38,0,17,6.68,17,14.92a14.14,14.14,0,0,1-5.52,11c12.06-.08,21.86,8.49,21.86,19.07S111.39,87.45,99.4,87.45H24.72C12.73,87.45,3,78.91,3,68.37A17,17,0,0,1,4.42,61.57Z"/></g></g></svg>